<?xml version="1.0" encoding="UTF-8" standalone="no"?>
<svg
   xmlns:osb="http://www.openswatchbook.org/uri/2009/osb"
   xmlns:dc="http://purl.org/dc/elements/1.1/"
   xmlns:cc="http://creativecommons.org/ns#"
   xmlns:rdf="http://www.w3.org/1999/02/22-rdf-syntax-ns#"
   xmlns:svg="http://www.w3.org/2000/svg"
   xmlns="http://www.w3.org/2000/svg"
   xmlns:xlink="http://www.w3.org/1999/xlink"
   xmlns:sodipodi="http://sodipodi.sourceforge.net/DTD/sodipodi-0.dtd"
   xmlns:inkscape="http://www.inkscape.org/namespaces/inkscape"
   width="1748pt"
   height="572pt"
   viewBox="0 0 1748 572"
   version="1.1"
   id="svg2"
   inkscape:version="0.91 r13725"
   sodipodi:docname="New Markets Logo on Grey Vector.svg">
  <metadata
     id="metadata70">
    <rdf:RDF>
      <cc:Work
         rdf:about="">
        <dc:format>image/svg+xml</dc:format>
        <dc:type
           rdf:resource="http://purl.org/dc/dcmitype/StillImage" />
        <dc:title />
      </cc:Work>
    </rdf:RDF>
  </metadata>
  <defs
     id="defs68">
    <linearGradient
       id="linearGradient4219"
       osb:paint="solid">
      <stop
         style="stop-color:#ffffff;stop-opacity:1;"
         offset="0"
         id="stop4221" />
    </linearGradient>
    <linearGradient
       id="linearGradient4213"
       osb:paint="solid">
      <stop
         style="stop-color:#ffffff;stop-opacity:1;"
         offset="0"
         id="stop4215" />
    </linearGradient>
    <linearGradient
       id="linearGradient4207"
       osb:paint="solid">
      <stop
         style="stop-color:#ffffff;stop-opacity:1;"
         offset="0"
         id="stop4209" />
    </linearGradient>
    <linearGradient
       id="linearGradient4201"
       osb:paint="solid">
      <stop
         style="stop-color:#ffffff;stop-opacity:1;"
         offset="0"
         id="stop4203" />
    </linearGradient>
    <linearGradient
       id="linearGradient4195"
       osb:paint="solid">
      <stop
         style="stop-color:#ffff00;stop-opacity:1;"
         offset="0"
         id="stop4197" />
    </linearGradient>
    <linearGradient
       id="linearGradient4173"
       osb:paint="solid">
      <stop
         style="stop-color:#283a45;stop-opacity:1;"
         offset="0"
         id="stop4175" />
    </linearGradient>
    <linearGradient
       inkscape:collect="always"
       xlink:href="#linearGradient4173"
       id="linearGradient4177"
       x1="-2.1458726"
       y1="284.45306"
       x2="1751.0321"
       y2="284.45306"
       gradientUnits="userSpaceOnUse"
       gradientTransform="translate(4.2917426,2.1458689)" />
    <linearGradient
       inkscape:collect="always"
       xlink:href="#linearGradient4173"
       id="linearGradient4199"
       x1="569.78088"
       y1="577.92706"
       x2="603.79413"
       y2="577.92706"
       gradientUnits="userSpaceOnUse" />
    <linearGradient
       inkscape:collect="always"
       xlink:href="#linearGradient4173"
       id="linearGradient4205"
       x1="556.40692"
       y1="467.77252"
       x2="596.84314"
       y2="467.77252"
       gradientUnits="userSpaceOnUse" />
    <linearGradient
       inkscape:collect="always"
       xlink:href="#linearGradient4173"
       id="linearGradient4211"
       x1="906.07141"
       y1="468.05292"
       x2="956.88617"
       y2="468.05292"
       gradientUnits="userSpaceOnUse" />
    <linearGradient
       inkscape:collect="always"
       xlink:href="#linearGradient4173"
       id="linearGradient4217"
       x1="1018.76"
       y1="455.09152"
       x2="1054.5966"
       y2="455.09152"
       gradientUnits="userSpaceOnUse" />
    <linearGradient
       inkscape:collect="always"
       xlink:href="#linearGradient4173"
       id="linearGradient4223"
       x1="932.71002"
       y1="291.97769"
       x2="994.76691"
       y2="291.97769"
       gradientUnits="userSpaceOnUse" />
  </defs>
  <sodipodi:namedview
     pagecolor="#ffffff"
     bordercolor="#666666"
     borderopacity="1"
     objecttolerance="10"
     gridtolerance="10"
     guidetolerance="10"
     inkscape:pageopacity="0"
     inkscape:pageshadow="2"
     inkscape:window-width="1600"
     inkscape:window-height="838"
     id="namedview66"
     showgrid="false"
     inkscape:snap-grids="true"
     inkscape:snap-to-guides="false"
     inkscape:zoom="0.3728087"
     inkscape:cx="967.01344"
     inkscape:cy="348.62073"
     inkscape:window-x="-8"
     inkscape:window-y="-8"
     inkscape:window-maximized="1"
     inkscape:current-layer="svg2" />
  <rect
     style="opacity:1;fill:url(#linearGradient4177);fill-opacity:1;stroke:none"
     id="rect4163"
     width="1753.178"
     height="570.80212"
     x="2.1458583"
     y="1.1978709"
     ry="0.57099283" />
  <path
     fill="#ffffff"
     d=" M 0.00 0.00 L 1748.00 0.00 L 1748.00 572.00 L 0.00 572.00 L 0.00 0.00 Z"
     id="path4"
     style="fill:#283a45;fill-opacity:0" />
  <path
     d="m 1410.89,60.94 c 5.34,-7.76 14.73,-12.33 24.11,-12.19 37.12,0.03 74.25,-0.03 111.37,0.03 l -0.32,143.7182 -140.47,0.0218 c 0.06,-38.18 0.01,-76.37 0.02,-114.55 -0.05,-6.05 1.74,-12.11 5.29,-17.03 z"
     id="path6"
     inkscape:connector-curvature="0"
     style="fill:#94eed6"
     sodipodi:nodetypes="ccccccc" />
  <path
     fill="#2e3f4a"
     d=" M 1418.50 251.64 C 1433.65 241.87 1452.65 240.75 1470.05 243.18 C 1485.58 245.46 1500.96 254.20 1507.69 268.89 C 1500.81 272.20 1494.27 276.25 1487.18 279.08 C 1481.64 270.73 1471.71 266.41 1462.14 264.76 C 1453.45 263.73 1444.15 264.12 1436.25 268.20 C 1431.12 270.75 1427.13 276.10 1427.36 281.99 C 1426.92 286.91 1430.28 291.41 1434.56 293.51 C 1443.42 298.10 1453.62 298.54 1463.31 299.99 C 1475.64 301.89 1488.49 304.60 1498.63 312.31 C 1507.80 319.07 1512.31 330.80 1511.78 341.99 C 1512.36 352.79 1508.09 363.81 1500.02 371.08 C 1490.33 380.16 1476.93 383.70 1464.07 385.19 C 1457.67 385.66 1451.26 385.47 1444.86 385.27 L 1444.15 384.82 C 1428.66 383.94 1412.76 377.58 1403.25 364.88 C 1400.29 360.97 1397.87 356.65 1396.21 352.05 C 1403.26 348.52 1410.26 344.89 1417.24 341.20 C 1420.35 347.86 1425.35 353.72 1431.94 357.13 C 1441.85 362.42 1453.55 363.52 1464.55 361.95 C 1470.91 360.91 1477.60 358.94 1482.10 354.05 C 1487.86 348.24 1488.37 337.55 1482.27 331.79 C 1476.64 326.31 1468.59 324.57 1461.13 323.22 C 1452.24 321.96 1443.25 321.11 1434.57 318.70 C 1425.67 316.33 1416.70 312.54 1410.44 305.56 C 1404.12 298.73 1401.74 289.09 1402.28 279.97 C 1402.09 268.47 1408.90 257.66 1418.50 251.64 Z"
     id="path12"
     style="fill:#ffffff" />
  <path
     fill="#2e3f4a"
     d=" M 80.70 246.43 C 87.62 246.42 94.55 246.42 101.47 246.44 C 123.45 274.40 145.58 302.25 167.51 330.25 C 167.85 302.33 167.57 274.40 167.65 246.47 C 176.19 246.38 184.73 246.44 193.27 246.43 C 193.26 291.67 193.31 336.91 193.24 382.16 C 187.80 381.99 182.31 382.62 176.92 381.63 C 153.71 351.15 129.78 321.21 106.51 290.77 C 106.19 321.08 106.39 351.39 106.41 381.70 C 97.89 382.65 89.29 381.94 80.73 382.15 C 80.65 336.91 80.72 291.67 80.70 246.43 Z"
     id="path14"
     style="fill:#ffffff" />
  <path
     fill="#2e3f4a"
     d=" M 210.23 246.43 C 243.96 246.42 277.69 246.42 311.42 246.44 C 311.40 254.73 311.47 263.03 311.38 271.32 C 277.69 271.32 244.01 271.27 210.32 271.32 C 210.11 263.02 210.27 254.73 210.23 246.43 Z"
     id="path16"
     style="fill:#ffffff" />
  <path
     fill="#2e3f4a"
     d=" M 325.00 246.47 C 334.48 246.36 343.97 246.47 353.45 246.41 C 362.36 273.27 371.02 300.21 379.84 327.10 C 381.58 332.75 383.70 338.28 385.11 344.03 C 391.71 326.53 397.15 308.59 403.29 290.92 C 408.28 276.10 413.24 261.27 418.22 246.44 C 423.83 246.44 429.43 246.34 435.04 246.52 C 442.39 268.47 450.14 290.29 457.66 312.19 C 461.45 322.80 464.76 333.59 468.94 344.05 C 478.82 311.41 489.42 278.97 499.64 246.43 C 509.13 246.45 518.61 246.36 528.10 246.49 C 514.00 286.68 499.32 326.68 485.01 366.81 C 483.34 371.71 481.24 376.47 480.00 381.50 C 472.99 382.80 465.77 381.98 458.69 382.07 C 457.38 381.77 457.29 380.17 456.74 379.22 C 451.58 365.88 446.20 352.64 441.06 339.30 C 436.27 325.11 431.50 310.91 426.83 296.68 C 422.79 308.49 419.02 320.39 415.14 332.26 C 412.09 342.14 407.93 351.62 404.28 361.29 C 401.57 368.03 399.17 374.90 396.30 381.57 C 396.05 381.69 395.56 381.94 395.31 382.07 C 388.38 382.23 381.42 382.33 374.50 381.80 C 358.01 336.69 341.30 291.65 325.00 246.47 Z"
     id="path18"
     style="fill:#ffffff" />
  <path
     fill="#2e3f4a"
     d=" M 806.83 246.46 C 816.14 246.40 825.46 246.42 834.77 246.45 C 851.51 283.91 868.33 321.34 885.06 358.80 C 888.32 366.61 892.48 374.07 895.07 382.14 C 886.31 382.09 877.54 382.31 868.80 382.05 C 868.45 381.92 867.75 381.65 867.40 381.52 C 851.61 346.15 836.21 310.59 820.94 274.99 C 804.85 310.60 789.74 346.68 773.52 382.23 C 764.43 382.05 755.34 382.23 746.25 382.13 C 766.19 336.80 786.72 291.72 806.83 246.46 Z"
     id="path20"
     style="fill:#ffffff" />
  <path
     fill="#2e3f4a"
     d=" M 907.29 246.43 C 928.86 246.43 950.43 246.54 972.00 246.43 C 985.30 246.38 999.05 250.89 1008.42 260.62 C 1022.63 275.49 1024.21 300.14 1013.20 317.25 C 1007.23 326.28 997.16 331.73 986.76 333.94 C 987.81 335.91 989.22 337.65 990.75 339.27 C 1001.14 350.86 1011.38 362.58 1021.77 374.18 C 1023.95 376.80 1026.47 379.16 1028.26 382.09 C 1018.10 382.15 1007.93 382.27 997.77 382.05 C 995.04 381.12 993.65 378.16 991.68 376.21 C 980.15 363.03 968.73 349.77 957.13 336.66 C 949.12 336.63 941.12 336.74 933.12 336.60 C 932.13 351.75 933.14 367.00 932.59 382.18 C 924.20 382.14 915.80 382.14 907.41 382.18 C 907.11 336.93 907.35 291.68 907.29 246.43 Z"
     id="path22"
     style="fill:#ffffff" />
  <path
     fill="#2e3f4a"
     d=" M 1116.87 246.46 C 1127.63 246.49 1138.40 246.22 1149.15 246.60 C 1129.43 268.09 1109.52 289.40 1089.71 310.80 C 1088.77 311.68 1089.17 313.12 1090.14 313.80 C 1110.41 334.88 1130.48 356.16 1150.73 377.26 C 1152.10 378.65 1153.46 380.14 1153.93 382.11 C 1144.60 382.22 1135.28 382.10 1125.97 382.18 C 1124.27 382.16 1122.32 382.38 1121.13 380.92 C 1102.65 361.26 1084.07 341.69 1065.60 322.02 C 1065.42 341.98 1065.56 361.94 1065.53 381.90 C 1056.95 382.20 1048.28 382.59 1039.74 381.64 C 1039.81 377.43 1039.63 373.20 1040.01 369.00 C 1039.64 363.67 1039.63 358.32 1040.01 353.00 C 1039.48 336.35 1039.93 319.67 1039.78 303.01 C 1039.93 291.68 1039.47 280.32 1040.02 269.00 C 1039.67 261.49 1039.50 253.91 1040.15 246.41 C 1048.60 246.45 1057.06 246.41 1065.52 246.43 C 1065.56 265.49 1065.45 284.55 1065.57 303.62 C 1082.74 284.63 1099.77 265.51 1116.87 246.46 Z"
     id="path24"
     style="fill:#ffffff" />
  <path
     fill="#2e3f4a"
     d=" M 1166.70 246.46 C 1200.54 246.45 1234.39 246.32 1268.23 246.52 C 1267.89 254.80 1268.90 263.19 1267.65 271.40 C 1234.02 271.19 1200.38 271.36 1166.74 271.29 C 1166.67 263.01 1166.72 254.73 1166.70 246.46 Z"
     id="path26"
     style="fill:#ffffff" />
  <path
     fill="#2e3f4a"
     d=" M 1281.65 246.43 C 1318.85 246.49 1356.05 246.28 1393.25 246.54 C 1392.86 254.80 1393.97 263.19 1392.60 271.38 C 1378.45 271.25 1364.31 271.34 1350.16 271.31 C 1350.15 300.87 1350.16 330.42 1350.16 359.98 C 1350.00 367.39 1350.50 374.82 1349.85 382.21 C 1341.43 382.09 1333.01 382.18 1324.59 382.15 C 1324.48 345.20 1324.58 308.26 1324.54 271.31 C 1310.27 271.30 1296.00 271.29 1281.73 271.29 C 1281.56 263.01 1281.69 254.72 1281.65 246.43 Z"
     id="path28"
     style="fill:#ffffff" />
  <path
     fill="#2e3f4a"
     d=" M 590.25 246.67 C 599.93 246.69 609.61 246.71 619.30 246.66 C 633.67 265.94 647.57 285.56 661.90 304.85 C 676.07 285.43 690.06 265.87 704.46 246.63 C 714.09 246.77 723.72 246.65 733.35 246.69 C 733.41 291.85 733.43 337.00 733.35 382.16 C 724.78 381.92 716.17 382.67 707.65 381.68 C 707.70 349.14 707.80 316.60 707.59 284.06 C 693.28 303.71 678.32 322.89 663.98 342.51 C 662.20 342.55 660.42 342.58 658.66 342.59 C 644.41 322.93 629.99 303.40 615.67 283.79 C 615.49 316.59 615.86 349.40 615.49 382.20 C 607.05 382.01 598.62 382.38 590.19 381.99 C 590.18 336.88 590.07 291.78 590.25 246.67 Z"
     id="path30"
     style="fill:#ffffff" />
  <path
     fill="#ffffff"
     d=" M 932.71 270.37 C 947.85 270.47 963.01 269.89 978.13 270.71 C 983.28 272.20 988.23 274.95 991.21 279.55 C 996.39 287.63 995.97 299.24 989.57 306.55 C 985.27 311.55 978.52 313.71 972.08 313.67 C 958.96 313.67 945.83 313.74 932.71 313.63 C 932.73 299.21 932.72 284.79 932.71 270.37 Z"
     id="path32"
     style="fill-opacity:1.0;fill:url(#linearGradient4223)" />
  <path
     fill="#2e3f4a"
     d=" M 210.25 302.52 C 243.06 302.53 275.87 302.48 308.67 302.49 C 308.70 310.45 308.73 318.41 308.66 326.36 C 284.26 326.36 259.87 326.36 235.48 326.36 C 235.48 336.48 235.48 346.60 235.48 356.73 C 260.78 356.74 286.08 356.73 311.38 356.73 C 311.45 365.20 311.46 373.68 311.37 382.16 C 277.70 382.17 244.03 382.11 210.36 382.19 C 210.06 355.64 210.27 329.08 210.25 302.52 Z"
     id="path34"
     style="fill:#ffffff" />
  <path
     fill="#2e3f4a"
     d=" M 1166.72 302.55 C 1199.60 302.50 1232.48 302.49 1265.36 302.50 C 1265.36 310.45 1265.38 318.40 1265.35 326.36 C 1240.95 326.36 1216.55 326.36 1192.15 326.36 C 1192.14 336.48 1192.14 346.61 1192.15 356.73 C 1217.18 356.78 1242.21 356.63 1267.24 356.80 C 1267.46 357.07 1267.90 357.62 1268.11 357.89 C 1268.41 365.80 1268.09 373.73 1268.25 381.65 C 1258.53 382.67 1248.74 381.93 1239.00 382.15 C 1219.33 382.16 1199.66 382.16 1180.00 382.15 C 1175.54 382.11 1171.06 382.42 1166.65 381.75 C 1166.79 355.35 1166.66 328.95 1166.72 302.55 Z"
     id="path36"
     style="fill:#ffffff" />
  <path
     fill="#06d4ce"
     d=" M 805.57 433.56 C 814.80 426.24 827.52 425.17 838.76 427.15 C 847.40 428.65 855.57 433.76 859.48 441.79 C 855.56 443.70 851.71 445.73 847.84 447.73 C 842.54 440.84 833.42 438.26 825.04 439.41 C 819.81 439.79 813.19 442.86 813.18 448.91 C 812.44 453.63 817.12 456.60 821.10 457.56 C 831.56 460.12 843.10 459.67 852.50 465.65 C 858.73 469.41 862.22 476.76 861.73 483.97 C 862.29 491.93 857.90 499.85 850.96 503.75 C 841.57 509.51 830.04 509.34 819.45 508.34 C 808.73 507.04 798.83 500.09 794.99 489.85 C 799.03 487.74 803.12 485.73 807.08 483.48 C 810.19 490.05 816.70 494.49 823.87 495.40 C 829.93 496.02 836.52 496.15 841.98 493.01 C 846.44 490.65 848.90 484.46 846.14 479.96 C 843.42 475.37 837.69 474.07 832.82 473.18 C 823.77 471.93 814.09 471.09 806.37 465.72 C 796.06 458.53 795.82 441.34 805.57 433.56 Z"
     id="path38" />
  <path
     fill="#06d4ce"
     d=" M 1108.94 434.92 C 1113.99 429.86 1121.12 427.49 1128.08 426.61 C 1135.96 425.82 1144.20 426.37 1151.51 429.66 C 1156.95 432.09 1161.64 436.36 1164.11 441.83 C 1160.30 443.78 1156.49 445.74 1152.70 447.72 C 1148.61 442.70 1142.41 439.50 1135.93 439.29 C 1130.75 439.05 1124.98 439.33 1120.87 442.89 C 1117.54 445.52 1116.52 451.19 1119.78 454.27 C 1123.22 457.63 1128.28 458.16 1132.80 458.95 C 1141.39 460.14 1150.51 461.10 1157.89 466.07 C 1169.98 474.12 1169.41 494.50 1157.57 502.54 C 1147.55 509.58 1134.45 509.82 1122.77 508.08 C 1112.68 506.45 1103.18 499.67 1099.98 489.72 C 1103.98 487.65 1107.99 485.62 1111.97 483.50 C 1115.16 490.50 1122.39 495.01 1129.98 495.56 C 1136.32 495.98 1143.53 496.01 1148.64 491.63 C 1153.16 488.04 1153.17 479.94 1148.05 476.87 C 1141.89 472.67 1134.09 473.08 1127.06 471.65 C 1119.78 470.27 1111.85 467.98 1107.14 461.83 C 1101.49 453.95 1101.88 441.84 1108.94 434.92 Z"
     id="path40" />
  <path
     fill="#06d4ce"
     d=" M 920.35 428.68 C 930.81 426.24 942.33 427.05 951.85 432.28 C 959.42 436.42 965.28 443.41 968.43 451.41 C 973.67 464.67 972.33 480.49 964.54 492.48 C 959.04 501.10 949.53 506.67 939.52 508.20 C 930.76 509.36 921.54 508.91 913.39 505.27 C 904.75 501.57 897.90 494.16 894.50 485.45 C 889.80 473.51 890.35 459.55 896.10 448.07 C 900.84 438.46 909.91 431.16 920.35 428.68 Z"
     id="path42" />
  <path
     fill="#06d4ce"
     d=" M 459.74 431.66 C 460.42 430.45 460.83 428.26 462.77 428.77 C 467.55 428.68 472.33 428.80 477.11 428.78 C 488.74 454.88 500.60 480.89 512.04 507.07 C 506.66 507.08 501.28 507.27 495.92 506.88 C 493.89 501.98 491.64 497.18 489.51 492.33 C 475.90 492.31 462.30 492.32 448.70 492.32 C 446.45 497.24 444.21 502.15 442.02 507.09 C 436.71 507.11 431.41 507.12 426.10 507.08 C 437.14 481.86 448.64 456.85 459.74 431.66 Z"
     id="path44" />
  <path
     fill="#06d4ce"
     d=" M 541.75 428.77 C 552.51 428.79 563.26 428.71 574.01 428.79 C 585.17 429.04 596.61 433.53 603.43 442.67 C 614.21 457.17 614.27 478.92 603.32 493.35 C 596.69 502.07 585.74 506.62 574.97 506.95 C 563.91 507.31 552.83 507.01 541.76 507.10 C 541.73 480.99 541.74 454.88 541.75 428.77 Z"
     id="path46" />
  <path
     fill="#06d4ce"
     d=" M 636.30 428.79 C 641.24 428.80 646.19 428.66 651.14 428.78 C 652.70 428.35 653.32 429.94 653.73 431.07 C 660.09 447.73 666.58 464.35 672.99 481.01 C 674.00 483.80 675.08 486.58 676.56 489.17 C 684.29 469.01 692.20 448.92 699.96 428.78 C 705.38 428.76 710.80 428.73 716.23 428.80 C 705.99 455.16 694.66 481.12 684.07 507.35 C 678.97 507.39 673.86 507.37 668.76 507.37 C 657.93 481.18 647.08 455.00 636.30 428.79 Z"
     id="path48" />
  <path
     fill="#06d4ce"
     d=" M 747.32 428.81 C 752.11 428.73 756.91 428.75 761.71 428.77 C 761.72 454.88 761.75 480.99 761.70 507.10 C 756.91 507.10 752.13 507.11 747.35 507.10 C 747.29 481.00 747.36 454.91 747.32 428.81 Z"
     id="path50" />
  <path
     fill="#06d4ce"
     d=" M 1004.19 428.77 C 1016.12 428.75 1028.06 428.81 1039.99 428.75 C 1047.74 428.70 1055.98 430.71 1061.64 436.29 C 1072.57 446.40 1072.01 466.75 1059.52 475.37 C 1056.72 477.60 1053.01 477.93 1050.02 479.76 C 1057.71 489.01 1066.36 497.48 1073.67 507.04 C 1067.63 506.80 1061.31 507.82 1055.45 506.56 C 1049.44 500.21 1043.95 493.37 1038.11 486.86 C 1036.18 484.85 1034.77 482.13 1032.18 480.90 C 1029.13 480.64 1026.06 480.80 1023.01 480.76 C 1021.62 481.00 1019.61 480.12 1018.88 481.75 C 1018.60 490.19 1018.90 498.65 1018.75 507.10 C 1013.90 507.11 1009.05 507.10 1004.20 507.10 C 1004.11 480.99 1004.17 454.88 1004.19 428.77 Z"
     id="path52" />
  <path
     fill="#ffffff"
     d=" M 927.56 441.02 C 935.49 439.87 944.30 442.10 949.86 448.13 C 955.02 453.69 957.20 461.48 956.85 468.96 C 957.00 477.90 953.03 487.48 944.99 492.02 C 934.39 497.75 919.19 496.32 911.56 486.38 C 905.77 478.95 905.26 468.88 906.85 459.95 C 909.00 450.14 917.39 441.93 927.56 441.02 Z"
     id="path54"
     style="fill-opacity:1.0;fill:url(#linearGradient4211)" />
  <path
     fill="#ffffff"
     d=" M 556.41 492.81 C 556.43 476.12 556.38 459.44 556.43 442.75 C 563.30 442.93 570.20 442.34 577.04 443.14 C 583.99 443.95 590.46 448.24 593.66 454.50 C 597.60 462.14 597.85 471.58 594.59 479.50 C 591.53 486.91 584.07 492.07 576.10 492.61 C 569.54 493.04 562.97 492.71 556.41 492.81 Z"
     id="path56"
     style="fill-opacity:1.0;fill:url(#linearGradient4205)" />
  <path
     fill="#ffffff"
     d=" M 1018.79 442.56 C 1026.20 442.57 1033.62 442.52 1041.03 442.56 C 1044.38 442.55 1047.86 443.37 1050.45 445.60 C 1055.91 450.25 1056.01 459.79 1050.56 464.49 C 1048.00 466.84 1044.45 467.64 1041.08 467.61 C 1033.63 467.64 1026.19 467.67 1018.76 467.57 C 1018.82 459.23 1018.76 450.89 1018.79 442.56 Z"
     id="path58"
     style="fill-opacity:1.0;fill:url(#linearGradient4217)" />
  <path
     fill="#ffffff"
     d=" M 468.98 445.73 C 474.31 456.44 478.65 467.62 483.53 478.55 C 473.97 478.55 464.42 478.59 454.87 478.52 C 459.20 467.44 464.21 456.63 468.98 445.73 Z"
     id="path60" />
  <path
     fill="#06d4ce"
     d=" M 80.70 462.43 C 178.55 462.46 276.41 462.31 374.27 462.50 C 374.25 465.89 374.25 469.28 374.31 472.67 C 323.87 473.08 273.42 472.73 222.98 472.85 C 175.56 472.85 128.13 472.85 80.70 472.84 C 80.70 469.37 80.70 465.90 80.70 462.43 Z"
     id="path62"
     style="fill:#00d4cc;fill-opacity:1" />
  <path
     fill="#06d4ce"
     d=" M 1218.55 462.43 C 1316.28 462.40 1414.02 462.43 1511.76 462.42 C 1511.76 465.89 1511.77 469.36 1511.77 472.84 C 1414.03 472.86 1316.29 472.84 1218.56 472.85 C 1218.54 469.37 1218.54 465.90 1218.55 462.43 Z"
     id="path64" />
  <path
     d="m 1698.6897,341.10133 c -5.34,7.76 -14.73,12.33 -24.11,12.19 -37.12,-0.03 -74.25,0.03 -111.37,-0.03 l 0.32,-143.7182 140.47,-0.022 c -0.06,38.18 -0.01,76.37 -0.02,114.55 0.05,6.05 -1.74,12.11 -5.29,17.03 z"
     id="path6-5"
     inkscape:connector-curvature="0"
     style="fill:#8fffd9;fill-opacity:1"
     sodipodi:nodetypes="ccccccc" />
  <path
     d="m 1698.6897,60.94 c -5.34,-7.76 -14.73,-12.33 -24.11,-12.19 -37.12,0.03 -74.25,-0.03 -111.37,0.03 l 0.32,143.71821 140.47,0.0218 c -0.06,-38.18 -0.01,-76.37 -0.02,-114.550011 0.05,-6.05 -1.74,-12.109999 -5.29,-17.029999 z"
     id="path6-5-1"
     inkscape:connector-curvature="0"
     style="fill:#06d4ce;fill-opacity:1"
     sodipodi:nodetypes="ccccccc" />
  <path
     style="opacity:1;fill:#283a45;fill-opacity:0;stroke:none"
     d="m 576.76461,581.10066 c 3.72507,-8.48291 7.69878,-16.38561 8.83045,-17.56156 1.73381,-1.80164 5.12221,4.68772 15.4723,29.63209 1.02331,2.46625 -2.90171,3.35293 -14.8422,3.35293 l -16.23342,0 6.77287,-15.42346 z"
     id="path4179"
     inkscape:connector-curvature="0"
     transform="scale(0.8,0.8)" />
  <path
     style="opacity:1;fill:#283a45;fill-opacity:0;stroke:none"
     d="m 1166.6728,365.29321 0,-26.60578 28.2991,0 28.299,0 5.751,2.87377 c 9.2604,4.62751 13.6663,12.22137 13.7518,23.70218 0.081,10.92279 -5.2698,19.53833 -14.8201,23.86069 -4.6708,2.11394 -5.9184,2.20773 -33.0673,2.48588 l -28.2135,0.28905 0,-26.60579 z"
     id="path4181"
     inkscape:connector-curvature="0"
     transform="scale(0.8,0.8)" />
  <path
     style="opacity:1;fill:#283a45;fill-opacity:0;stroke:none"
     d="m 1166.6728,365.29321 0,-26.60578 28.2991,0 28.299,0 5.751,2.87377 c 9.2604,4.62751 13.6663,12.22137 13.7518,23.70218 0.081,10.92279 -5.2698,19.53833 -14.8201,23.86069 -4.6708,2.11394 -5.9184,2.20773 -33.0673,2.48588 l -28.2135,0.28905 0,-26.60579 z"
     id="path4183"
     inkscape:connector-curvature="0"
     transform="scale(0.8,0.8)" />
  <path
     style="opacity:1;fill:#283a45;fill-opacity:0;stroke:none"
     d="m 1166.6728,365.29321 0,-26.60578 28.2991,0 28.299,0 5.751,2.87377 c 9.2604,4.62751 13.6663,12.22137 13.7518,23.70218 0.081,10.92279 -5.2698,19.53833 -14.8201,23.86069 -4.6708,2.11394 -5.9184,2.20773 -33.0673,2.48588 l -28.2135,0.28905 0,-26.60579 z"
     id="path4185"
     inkscape:connector-curvature="0"
     transform="scale(0.8,0.8)" />
  <path
     style="opacity:1;fill:#283a45;fill-opacity:0;stroke:none"
     d="m 696.29089,584.78444 0,-30.99536 13.98817,0.35028 c 12.19366,0.30534 14.63149,0.63761 19.00275,2.59001 10.80337,4.82527 17.11184,16.98119 16.05621,30.93904 -0.9069,11.99129 -6.64178,20.9641 -16.09987,25.18988 -4.32053,1.93037 -6.80108,2.26678 -18.95909,2.57123 l -13.98817,0.35027 0,-30.99535 z"
     id="path4187"
     inkscape:connector-curvature="0"
     transform="scale(0.8,0.8)" />
  <path
     style="opacity:1;fill:#283a45;fill-opacity:0;stroke:none"
     d="m 570.62892,594.03086 c 4.34651,-10.71596 15.24688,-35.29958 15.65329,-35.3029 0.5165,-0.004 0.51716,-0.003 10.33698,22.5615 3.70334,8.50962 6.73333,15.65781 6.73333,15.88487 0,0.22706 -7.68736,0.41284 -17.08304,0.41284 l -17.08304,0 1.44248,-3.55631 z"
     id="path4189"
     inkscape:connector-curvature="0"
     transform="scale(0.8,0.8)" />
  <path
     style="opacity:1;fill:#283a45;fill-opacity:0;stroke:none"
     d="m 1151.9016,616.50016 c -6.6802,-2.57006 -12.1383,-7.55706 -15.2771,-13.95857 -2.3288,-4.74934 -2.7027,-6.73389 -2.9886,-15.86045 -0.2771,-8.8455 -0.021,-11.24625 1.6872,-15.78728 2.6469,-7.03812 8.3276,-13.35422 14.9049,-16.57219 6.7834,-3.31883 17.8526,-3.71208 25.898,-0.92007 7.0761,2.45563 14.1664,9.58661 17.0889,17.18697 3.0425,7.91223 3.0472,21.27624 0.01,29.25308 -2.8734,7.54759 -9.1846,13.9338 -16.3933,16.58821 -7.2052,2.65313 -18.1368,2.68396 -24.9304,0.0703 z"
     id="path4191"
     inkscape:connector-curvature="0"
     transform="scale(0.8,0.8)" />
  <path
     style="opacity:1;fill:url(#linearGradient4199);fill-opacity:1.0;stroke:none"
     d="m 569.78091,596.67057 c 0,-0.50413 3.03412,-7.8657 6.7425,-16.35905 3.70838,-8.49335 7.3827,-16.92792 8.16517,-18.74349 l 1.42267,-3.30104 1.90602,3.71522 c 1.04831,2.04337 5.02696,10.89041 8.84144,19.66009 l 6.93543,15.94487 -17.00662,0 c -10.3128,0 -17.00661,-0.36077 -17.00661,-0.9166 z"
     id="path4193"
     inkscape:connector-curvature="0"
     transform="scale(0.8,0.8)" />
  <path
     style="opacity:1;fill:#00d4cc;fill-opacity:1;stroke:none"
     d="m 536.28393,629.38279 c 0.93573,-2.58175 10.41953,-24.29918 21.07512,-48.26094 l 19.37379,-43.56684 9.62366,-0.0212 9.62365,-0.0212 20.91259,47.02811 c 11.50192,25.86547 20.23341,47.70729 19.40331,48.53739 -0.8301,0.8301 -4.96766,0.74968 -9.19459,-0.1787 -5.26382,-1.15613 -8.63145,-4.19459 -10.68816,-9.64344 l -3.00286,-7.95548 -27.02041,0 -27.02041,0 -3.92264,9.38819 c -3.30893,7.91941 -5.2479,9.3882 -12.39351,9.3882 -6.92739,0 -8.16087,-0.85531 -6.76954,-4.6941 z m 68.61349,-31.40865 c 0,-0.67778 -4.15145,-10.63597 -9.22544,-22.12932 l -9.22544,-20.89699 -9.55095,20.93675 c -5.25301,11.51521 -9.55094,21.4734 -9.55094,22.12931 0,0.65591 8.44937,1.19256 18.77639,1.19256 10.32701,0 18.77638,-0.55454 18.77638,-1.23231 z"
     id="path4190"
     inkscape:connector-curvature="0"
     transform="scale(0.8,0.8)" />
  <path
     style="opacity:1;fill:#00d4cc;fill-opacity:1;stroke:none"
     d="m 677.32062,586.14029 0,-48.62767 26.15283,0.0441 c 22.04207,0.0372 27.83928,0.98756 36.88218,6.04631 19.54837,10.93568 27.95471,38.07384 18.67409,60.28548 -8.97304,21.47551 -18.15758,26.37386 -54.24956,28.93266 l -27.45954,1.94678 0,-48.62768 z m 52.21365,28.03035 c 19.58153,-8.18169 23.56504,-38.31687 7.01925,-53.10053 -7.31605,-6.53689 -10.51232,-7.46345 -25.74595,-7.46345 l -17.3929,0 0,30.39986 c 0,16.71993 0.8047,31.20457 1.78823,32.18809 3.18007,3.18008 24.94767,1.89679 34.33137,-2.02397 z"
     id="path4192"
     inkscape:connector-curvature="0"
     transform="scale(0.8,0.8)" />
  <path
     style="opacity:1;fill:#00d4cc;fill-opacity:1;stroke:none"
     d="m 818.14352,588.26883 c -10.32701,-25.18892 -19.17874,-46.91363 -19.6705,-48.27713 -0.49176,-1.3635 3.13994,-2.47908 8.07045,-2.47908 l 8.96457,0 14.44416,37.61452 c 7.94429,20.68799 15.14291,36.91578 15.99693,36.06176 0.85402,-0.85402 7.74586,-17.4788 15.3152,-36.94394 13.3418,-34.30947 14.02041,-35.41686 22.203,-36.23171 4.64231,-0.46229 8.44056,0.30265 8.44056,1.69987 0,1.39722 -4.93767,14.44952 -10.97261,29.00511 -6.03493,14.55559 -14.59695,35.21585 -19.02669,45.91168 -7.59396,18.33598 -8.53782,19.44669 -16.52139,19.44197 -8.43686,-0.005 -8.53479,-0.16963 -27.24368,-45.80305 z"
     id="path4194"
     inkscape:connector-curvature="0"
     transform="scale(0.8,0.8)" />
  <path
     style="opacity:1;fill:#00d4cc;fill-opacity:1;stroke:none"
     d="m 934.82535,585.79475 0,-48.28213 8.04702,0 8.04702,0 0,48.28213 0,48.28214 -8.04702,0 -8.04702,0 0,-48.28214 z"
     id="path4196"
     inkscape:connector-curvature="0"
     transform="scale(0.8,0.8)" />
  <path
     style="opacity:1;fill:#00d4cc;fill-opacity:1;stroke:none"
     d="m 1013.9544,631.51786 c -2.9506,-1.22044 -8.2577,-5.33323 -11.7936,-9.13954 -5.33784,-5.74594 -5.85118,-7.6168 -3.02453,-11.0227 4.56833,-5.50456 7.97163,-5.16939 15.05213,1.48242 16.983,15.95463 53.8902,4.80242 44.1761,-13.34861 -3.1063,-5.80413 -4.8701,-6.50107 -28.1459,-11.12166 -29.1148,-5.77974 -39.52564,-25.15373 -23.2843,-43.33096 7.044,-7.88358 9.3736,-8.74428 26.1528,-9.66257 15.88,-0.86907 19.6862,-0.14383 27.6015,5.25925 11.5742,7.90068 12.6913,11.31236 4.8707,14.87565 -4.9491,2.25498 -7.4653,1.80583 -12.4372,-2.22014 -11.8785,-9.61866 -37.8265,-4.00167 -37.8265,8.18834 0,7.42175 5.0541,10.21009 26.6795,14.71913 21.5892,4.50147 31.0276,10.96513 33.6861,23.06897 2.5779,11.73712 -4.925,26.28867 -15.9243,30.88447 -10.0748,4.20951 -36.9698,5.01311 -45.7825,1.36795 z"
     id="path4198"
     inkscape:connector-curvature="0"
     transform="scale(0.8,0.8)" />
  <path
     style="opacity:1;fill:#00d4cc;fill-opacity:1;stroke:none"
     d="m 1142.5738,630.30392 c -17.6545,-7.6898 -30.3682,-32.55421 -26.6849,-52.18795 4.4454,-23.69582 18.7907,-38.61298 40.4661,-42.07902 52.8363,-8.44886 78.3941,61.68861 33.5028,91.94084 -10.5153,7.08629 -33.7332,8.22849 -47.284,2.32613 z m 38.5177,-15.07218 c 16.1085,-9.82109 20.8724,-35.11041 9.7979,-52.01231 -12.1072,-18.47797 -46.7357,-15.75135 -55.157,4.34303 -8.4136,20.07606 -1.9202,42.02323 14.5533,49.18883 11.925,5.18716 20.4992,4.76422 30.8058,-1.51955 z"
     id="path4200"
     inkscape:connector-curvature="0"
     transform="scale(0.8,0.8)" />
  <path
     style="opacity:1;fill:#00d4cc;fill-opacity:1;stroke:none"
     d="m 1280.1767,551.66627 c 4.7947,-0.59502 12.6406,-0.59502 17.4352,0 4.7947,0.59501 0.8718,1.08184 -8.7176,1.08184 -9.5893,0 -13.5123,-0.48683 -8.7176,-1.08184 z"
     id="path4202"
     inkscape:connector-curvature="0"
     transform="scale(0.8,0.8)" />
  <path
     style="opacity:1;fill:#00d4cc;fill-opacity:1;stroke:none"
     d="m 1396.188,632.1893 c -5.0355,-1.83227 -18.7764,-14.49003 -18.7764,-17.29627 0,-1.14737 2.528,-3.43906 5.6177,-5.09265 4.6269,-2.47621 6.7095,-1.98092 11.8069,2.80784 17.188,16.14724 54.2288,5.20794 44.4207,-13.11879 -3.1063,-5.80413 -4.8701,-6.50107 -28.1459,-11.12166 -45.5659,-9.04551 -39.4602,-53.5375 7.347,-53.5375 10.5986,0 16.8813,1.62065 23.3969,6.03527 11.2971,7.65437 12.3782,11.09817 4.5968,14.6436 -4.9491,2.25498 -7.4653,1.80583 -12.4372,-2.22014 -11.8785,-9.61866 -37.8265,-4.00167 -37.8265,8.18834 0,7.42175 5.054,10.21009 26.6795,14.71913 21.5892,4.50147 31.0276,10.96513 33.6861,23.06897 2.5779,11.73712 -4.925,26.28867 -15.9243,30.88447 -9.0801,3.7939 -36.1995,5.0384 -44.4413,2.03939 z"
     id="path4204"
     inkscape:connector-curvature="0"
     transform="scale(0.8,0.8)" />
  <path
     style="opacity:1;fill:#00d4cc;fill-opacity:1;stroke:none"
     d="m 1394.8468,631.51786 c -2.9506,-1.22044 -8.2577,-5.33323 -11.7936,-9.13954 -5.3378,-5.74594 -5.8512,-7.6168 -3.0245,-11.0227 4.5475,-5.47941 6.202,-5.23679 17.7556,2.60371 14.6904,9.96917 34.8513,8.06555 41.2524,-3.89511 5.4199,-10.12718 -0.6032,-15.40924 -23.3388,-20.46744 -31.2097,-6.94349 -43.731,-23.19347 -31.4176,-40.77328 10.4284,-14.88867 41.0904,-19.12678 57.5746,-7.95796 11.3685,7.70272 12.3777,11.0984 4.3812,14.74184 -5.0322,2.29284 -7.2867,2.05837 -10.4298,-1.08471 -6.3225,-6.32252 -24.8926,-7.75865 -32.8559,-2.54093 -7.9053,5.17976 -8.8381,13.737 -1.9021,17.44903 2.6731,1.43064 13.2059,4.53664 23.4062,6.90223 10.295,2.38759 21.2412,6.83322 24.6043,9.99275 13.6499,12.8234 8.947,36.56379 -8.7042,43.93893 -9.8478,4.11467 -36.7957,4.85675 -45.5078,1.25318 z"
     id="path4206"
     inkscape:connector-curvature="0"
     transform="scale(0.8,0.8)" />
  <path
     style="opacity:1;fill:#00d4cc;fill-opacity:1;stroke:none"
     d="m 1524.9403,584.45358 0,-6.70585 182.3992,0 182.3992,0 0,6.70585 0,6.70585 -182.3992,0 -182.3992,0 0,-6.70585 z"
     id="path4210"
     inkscape:connector-curvature="0"
     transform="scale(0.8,0.8)" />
  <path
     style="opacity:1;fill:#00d4cc;fill-opacity:1;stroke:none"
     d="m 1955.8381,223.28526 c -0.9478,-9.06813 -1.7232,-48.95314 -1.7232,-88.63333 l 0,-72.145818 77.7402,0.786673 77.7403,0.786673 8.7652,8.76533 8.7652,8.76533 0.7851,79.081332 0.785,79.08133 -85.5672,0 -85.5673,0 -1.7233,-16.48752 z"
     id="path4212"
     inkscape:connector-curvature="0"
     transform="scale(0.8,0.8)" />
  <path
     style="opacity:1;fill:#8fffd9;fill-opacity:1;stroke:none"
     d="m 1758.304,164.53403 c 0,-83.214918 0.5923,-86.599404 16.8948,-96.539654 7.9713,-4.860349 13.9281,-5.236755 83.0224,-5.246062 l 74.4349,-0.01003 0,88.517243 0,88.51725 -87.176,0 -87.1761,0 0,-75.23875 z"
     id="path4214"
     inkscape:connector-curvature="0"
     transform="scale(0.8,0.8)" />
</svg>
